<?xml version="1.0" encoding="UTF-8"?>
<svg xmlns="http://www.w3.org/2000/svg" xmlns:xlink="http://www.w3.org/1999/xlink" width="1000" height="1000" viewBox="0 0 1000 1000">
<defs>
<g id="source-143">
<path fill-rule="nonzero" fill="rgb(60.784314%, 85.882353%, 30.196078%)" fill-opacity="1" stroke-width="1" stroke-linecap="round" stroke-linejoin="round" stroke="rgb(0%, 0%, 0%)" stroke-opacity="1" stroke-miterlimit="4" d="M 0.741237 0.741237 L 189.015507 0.741237 L 189.015507 189.015507 L 0.741237 189.015507 Z M 0.741237 0.741237 " transform="matrix(0.0052699, 0, 0, 0.0052699, 0, 0)"/>
<path fill-rule="nonzero" fill="rgb(60.784314%, 85.882353%, 30.196078%)" fill-opacity="1" stroke-width="1" stroke-linecap="round" stroke-linejoin="round" stroke="rgb(0%, 0%, 0%)" stroke-opacity="1" stroke-miterlimit="4" d="M 0.741237 0.741237 L 189.015507 0.741237 L 189.015507 189.015507 L 0.741237 189.015507 Z M 0.741237 0.741237 " transform="matrix(0.0052699, 0, 0, 0.0052699, 1, 0)"/>
<path fill-rule="nonzero" fill="rgb(60.784314%, 85.882353%, 30.196078%)" fill-opacity="1" stroke-width="1" stroke-linecap="round" stroke-linejoin="round" stroke="rgb(0%, 0%, 0%)" stroke-opacity="1" stroke-miterlimit="4" d="M 0.741237 0.741237 L 189.015507 0.741237 L 189.015507 189.015507 L 0.741237 189.015507 Z M 0.741237 0.741237 " transform="matrix(0.0052699, 0, 0, 0.0052699, 2, 0)"/>
<path fill-rule="nonzero" fill="rgb(60.784314%, 85.882353%, 30.196078%)" fill-opacity="1" stroke-width="1" stroke-linecap="round" stroke-linejoin="round" stroke="rgb(0%, 0%, 0%)" stroke-opacity="1" stroke-miterlimit="4" d="M 0.741237 0.741237 L 189.015507 0.741237 L 189.015507 189.015507 L 0.741237 189.015507 Z M 0.741237 0.741237 " transform="matrix(0.0052699, 0, 0, 0.0052699, 3, 0)"/>
<path fill-rule="nonzero" fill="rgb(60.784314%, 85.882353%, 30.196078%)" fill-opacity="1" stroke-width="1" stroke-linecap="round" stroke-linejoin="round" stroke="rgb(0%, 0%, 0%)" stroke-opacity="1" stroke-miterlimit="4" d="M 0.741237 0.741237 L 189.015507 0.741237 L 189.015507 189.015507 L 0.741237 189.015507 Z M 0.741237 0.741237 " transform="matrix(0.0052699, 0, 0, 0.0052699, 4, 0)"/>
<path fill-rule="nonzero" fill="rgb(60.784314%, 85.882353%, 30.196078%)" fill-opacity="1" stroke-width="1" stroke-linecap="round" stroke-linejoin="round" stroke="rgb(0%, 0%, 0%)" stroke-opacity="1" stroke-miterlimit="4" d="M 0.741237 0.741237 L 189.015507 0.741237 L 189.015507 189.015507 L 0.741237 189.015507 Z M 0.741237 0.741237 " transform="matrix(0.0052699, 0, 0, 0.0052699, 5, 0)"/>
<path fill-rule="nonzero" fill="rgb(60.784314%, 85.882353%, 30.196078%)" fill-opacity="1" stroke-width="1" stroke-linecap="round" stroke-linejoin="round" stroke="rgb(0%, 0%, 0%)" stroke-opacity="1" stroke-miterlimit="4" d="M 0.741237 0.741237 L 189.015507 0.741237 L 189.015507 189.015507 L 0.741237 189.015507 Z M 0.741237 0.741237 " transform="matrix(0.0052699, 0, 0, 0.0052699, 6, 0)"/>
<path fill-rule="nonzero" fill="rgb(60.784314%, 85.882353%, 30.196078%)" fill-opacity="1" stroke-width="1" stroke-linecap="round" stroke-linejoin="round" stroke="rgb(0%, 0%, 0%)" stroke-opacity="1" stroke-miterlimit="4" d="M 0.741237 0.741237 L 189.015507 0.741237 L 189.015507 189.015507 L 0.741237 189.015507 Z M 0.741237 0.741237 " transform="matrix(0.0052699, 0, 0, 0.0052699, 7, 0)"/>
<path fill-rule="nonzero" fill="rgb(60.784314%, 85.882353%, 30.196078%)" fill-opacity="1" stroke-width="1" stroke-linecap="round" stroke-linejoin="round" stroke="rgb(0%, 0%, 0%)" stroke-opacity="1" stroke-miterlimit="4" d="M 0.741237 0.741237 L 189.015507 0.741237 L 189.015507 189.015507 L 0.741237 189.015507 Z M 0.741237 0.741237 " transform="matrix(0.0052699, 0, 0, 0.0052699, 8, 0)"/>
<path fill-rule="nonzero" fill="rgb(60.784314%, 85.882353%, 30.196078%)" fill-opacity="1" stroke-width="1" stroke-linecap="round" stroke-linejoin="round" stroke="rgb(0%, 0%, 0%)" stroke-opacity="1" stroke-miterlimit="4" d="M 0.741237 0.741237 L 189.015507 0.741237 L 189.015507 189.015507 L 0.741237 189.015507 Z M 0.741237 0.741237 " transform="matrix(0.0052699, 0, 0, 0.0052699, 9, 0)"/>
<path fill-rule="nonzero" fill="rgb(60.784314%, 85.882353%, 30.196078%)" fill-opacity="1" stroke-width="1" stroke-linecap="round" stroke-linejoin="round" stroke="rgb(0%, 0%, 0%)" stroke-opacity="1" stroke-miterlimit="4" d="M 0.741237 0.741237 L 189.015507 0.741237 L 189.015507 189.015507 L 0.741237 189.015507 Z M 0.741237 0.741237 " transform="matrix(0.0052699, 0, 0, 0.0052699, 0, 1)"/>
<path fill-rule="nonzero" fill="rgb(60.784314%, 85.882353%, 30.196078%)" fill-opacity="1" stroke-width="1" stroke-linecap="round" stroke-linejoin="round" stroke="rgb(0%, 0%, 0%)" stroke-opacity="1" stroke-miterlimit="4" d="M 0.741237 0.741237 L 189.015507 0.741237 L 189.015507 189.015507 L 0.741237 189.015507 Z M 0.741237 0.741237 " transform="matrix(0.0052699, 0, 0, 0.0052699, 1, 1)"/>
<path fill-rule="nonzero" fill="rgb(12.54902%, 41.960784%, 0%)" fill-opacity="1" stroke-width="9.375" stroke-linecap="round" stroke-linejoin="round" stroke="rgb(0%, 0%, 0%)" stroke-opacity="1" stroke-miterlimit="4" d="M 68.799534 110.11224 C 45.079941 111.594715 29.513958 76.756562 29.513958 53.036969 C 29.513958 28.576139 60.645924 4.856546 99.190263 5.597783 C 122.168619 6.33902 149.594398 24.869952 156.265534 47.848308 C 167.384093 84.910172 148.111923 113.818426 127.35728 120.489562 " transform="matrix(0.0052699, 0, 0, 0.0052699, 0.977277, 1.033)"/>
<path fill-rule="evenodd" fill="rgb(50.196078%, 29.411765%, 0%)" fill-opacity="1" stroke-width="9.375" stroke-linecap="butt" stroke-linejoin="miter" stroke="rgb(0%, 0%, 0%)" stroke-opacity="1" stroke-miterlimit="4" d="M 96.966551 103.441104 L 99.190263 88.616359 C 100.672737 79.721511 124.39233 97.511206 119.944907 105.664816 C 112.532534 119.748325 115.497483 133.831833 119.944907 148.656579 C 122.909856 156.810189 112.532534 164.963799 103.637686 164.963799 L 94.742839 164.963799 C 85.847992 164.963799 76.211907 156.810189 78.435619 148.656579 C 82.141805 133.831833 87.330466 119.007087 78.435619 105.664816 C 73.246958 98.252443 96.225314 112.335952 96.966551 103.441104 Z M 96.966551 103.441104 " transform="matrix(0.0052699, 0, 0, 0.0052699, 0.977277, 1.033)"/>
<path fill-rule="nonzero" fill="rgb(60.784314%, 85.882353%, 30.196078%)" fill-opacity="1" stroke-width="1" stroke-linecap="round" stroke-linejoin="round" stroke="rgb(0%, 0%, 0%)" stroke-opacity="1" stroke-miterlimit="4" d="M 0.741237 0.741237 L 189.015507 0.741237 L 189.015507 189.015507 L 0.741237 189.015507 Z M 0.741237 0.741237 " transform="matrix(0.0052699, 0, 0, 0.0052699, 2, 1)"/>
<path fill-rule="nonzero" fill="rgb(60.784314%, 85.882353%, 30.196078%)" fill-opacity="1" stroke-width="1" stroke-linecap="round" stroke-linejoin="round" stroke="rgb(0%, 0%, 0%)" stroke-opacity="1" stroke-miterlimit="4" d="M 0.741237 0.741237 L 189.015507 0.741237 L 189.015507 189.015507 L 0.741237 189.015507 Z M 0.741237 0.741237 " transform="matrix(0.0052699, 0, 0, 0.0052699, 3, 1)"/>
<path fill-rule="nonzero" fill="rgb(60.784314%, 85.882353%, 30.196078%)" fill-opacity="1" stroke-width="1" stroke-linecap="round" stroke-linejoin="round" stroke="rgb(0%, 0%, 0%)" stroke-opacity="1" stroke-miterlimit="4" d="M 0.741237 0.741237 L 189.015507 0.741237 L 189.015507 189.015507 L 0.741237 189.015507 Z M 0.741237 0.741237 " transform="matrix(0.0052699, 0, 0, 0.0052699, 4, 1)"/>
<path fill-rule="nonzero" fill="rgb(60.784314%, 85.882353%, 30.196078%)" fill-opacity="1" stroke-width="1" stroke-linecap="round" stroke-linejoin="round" stroke="rgb(0%, 0%, 0%)" stroke-opacity="1" stroke-miterlimit="4" d="M 0.741237 0.741237 L 189.015507 0.741237 L 189.015507 189.015507 L 0.741237 189.015507 Z M 0.741237 0.741237 " transform="matrix(0.0052699, 0, 0, 0.0052699, 5, 1)"/>
<path fill-rule="nonzero" fill="rgb(60.784314%, 85.882353%, 30.196078%)" fill-opacity="1" stroke-width="1" stroke-linecap="round" stroke-linejoin="round" stroke="rgb(0%, 0%, 0%)" stroke-opacity="1" stroke-miterlimit="4" d="M 0.741237 0.741237 L 189.015507 0.741237 L 189.015507 189.015507 L 0.741237 189.015507 Z M 0.741237 0.741237 " transform="matrix(0.0052699, 0, 0, 0.0052699, 6, 1)"/>
<path fill-rule="nonzero" fill="rgb(60.784314%, 85.882353%, 30.196078%)" fill-opacity="1" stroke-width="1" stroke-linecap="round" stroke-linejoin="round" stroke="rgb(0%, 0%, 0%)" stroke-opacity="1" stroke-miterlimit="4" d="M 0.741237 0.741237 L 189.015507 0.741237 L 189.015507 189.015507 L 0.741237 189.015507 Z M 0.741237 0.741237 " transform="matrix(0.0052699, 0, 0, 0.0052699, 7, 1)"/>
<path fill-rule="nonzero" fill="rgb(60.784314%, 85.882353%, 30.196078%)" fill-opacity="1" stroke-width="1" stroke-linecap="round" stroke-linejoin="round" stroke="rgb(0%, 0%, 0%)" stroke-opacity="1" stroke-miterlimit="4" d="M 0.741237 0.741237 L 189.015507 0.741237 L 189.015507 189.015507 L 0.741237 189.015507 Z M 0.741237 0.741237 " transform="matrix(0.0052699, 0, 0, 0.0052699, 8, 1)"/>
<path fill-rule="nonzero" fill="rgb(60.784314%, 85.882353%, 30.196078%)" fill-opacity="1" stroke-width="1" stroke-linecap="round" stroke-linejoin="round" stroke="rgb(0%, 0%, 0%)" stroke-opacity="1" stroke-miterlimit="4" d="M 0.741237 0.741237 L 189.015507 0.741237 L 189.015507 189.015507 L 0.741237 189.015507 Z M 0.741237 0.741237 " transform="matrix(0.0052699, 0, 0, 0.0052699, 9, 1)"/>
<path fill-rule="nonzero" fill="rgb(60.784314%, 85.882353%, 30.196078%)" fill-opacity="1" stroke-width="1" stroke-linecap="round" stroke-linejoin="round" stroke="rgb(0%, 0%, 0%)" stroke-opacity="1" stroke-miterlimit="4" d="M 0.741237 0.741237 L 189.015507 0.741237 L 189.015507 189.015507 L 0.741237 189.015507 Z M 0.741237 0.741237 " transform="matrix(0.0052699, 0, 0, 0.0052699, 0, 2)"/>
<path fill-rule="nonzero" fill="rgb(60.784314%, 85.882353%, 30.196078%)" fill-opacity="1" stroke-width="1" stroke-linecap="round" stroke-linejoin="round" stroke="rgb(0%, 0%, 0%)" stroke-opacity="1" stroke-miterlimit="4" d="M 0.741237 0.741237 L 189.015507 0.741237 L 189.015507 189.015507 L 0.741237 189.015507 Z M 0.741237 0.741237 " transform="matrix(0.0052699, 0, 0, 0.0052699, 1, 2)"/>
<path fill-rule="nonzero" fill="rgb(60.784314%, 85.882353%, 30.196078%)" fill-opacity="1" stroke-width="1" stroke-linecap="round" stroke-linejoin="round" stroke="rgb(0%, 0%, 0%)" stroke-opacity="1" stroke-miterlimit="4" d="M 0.741237 0.741237 L 189.015507 0.741237 L 189.015507 189.015507 L 0.741237 189.015507 Z M 0.741237 0.741237 " transform="matrix(0.0052699, 0, 0, 0.0052699, 2, 2)"/>
<path fill-rule="nonzero" fill="rgb(60.784314%, 85.882353%, 30.196078%)" fill-opacity="1" stroke-width="1" stroke-linecap="round" stroke-linejoin="round" stroke="rgb(0%, 0%, 0%)" stroke-opacity="1" stroke-miterlimit="4" d="M 0.741237 0.741237 L 189.015507 0.741237 L 189.015507 189.015507 L 0.741237 189.015507 Z M 0.741237 0.741237 " transform="matrix(0.0052699, 0, 0, 0.0052699, 3, 2)"/>
<path fill-rule="nonzero" fill="rgb(60.784314%, 85.882353%, 30.196078%)" fill-opacity="1" stroke-width="1" stroke-linecap="round" stroke-linejoin="round" stroke="rgb(0%, 0%, 0%)" stroke-opacity="1" stroke-miterlimit="4" d="M 0.741237 0.741237 L 189.015507 0.741237 L 189.015507 189.015507 L 0.741237 189.015507 Z M 0.741237 0.741237 " transform="matrix(0.0052699, 0, 0, 0.0052699, 4, 2)"/>
<path fill-rule="nonzero" fill="rgb(60.784314%, 85.882353%, 30.196078%)" fill-opacity="1" stroke-width="1" stroke-linecap="round" stroke-linejoin="round" stroke="rgb(0%, 0%, 0%)" stroke-opacity="1" stroke-miterlimit="4" d="M 0.741237 0.741237 L 189.015507 0.741237 L 189.015507 189.015507 L 0.741237 189.015507 Z M 0.741237 0.741237 " transform="matrix(0.0052699, 0, 0, 0.0052699, 5, 2)"/>
<path fill-rule="nonzero" fill="rgb(60.784314%, 85.882353%, 30.196078%)" fill-opacity="1" stroke-width="1" stroke-linecap="round" stroke-linejoin="round" stroke="rgb(0%, 0%, 0%)" stroke-opacity="1" stroke-miterlimit="4" d="M 0.741237 0.741237 L 189.015507 0.741237 L 189.015507 189.015507 L 0.741237 189.015507 Z M 0.741237 0.741237 " transform="matrix(0.0052699, 0, 0, 0.0052699, 6, 2)"/>
<path fill-rule="nonzero" fill="rgb(60.784314%, 85.882353%, 30.196078%)" fill-opacity="1" stroke-width="1" stroke-linecap="round" stroke-linejoin="round" stroke="rgb(0%, 0%, 0%)" stroke-opacity="1" stroke-miterlimit="4" d="M 0.741237 0.741237 L 189.015507 0.741237 L 189.015507 189.015507 L 0.741237 189.015507 Z M 0.741237 0.741237 " transform="matrix(0.0052699, 0, 0, 0.0052699, 7, 2)"/>
<path fill-rule="nonzero" fill="rgb(60.784314%, 85.882353%, 30.196078%)" fill-opacity="1" stroke-width="1" stroke-linecap="round" stroke-linejoin="round" stroke="rgb(0%, 0%, 0%)" stroke-opacity="1" stroke-miterlimit="4" d="M 0.741237 0.741237 L 189.015507 0.741237 L 189.015507 189.015507 L 0.741237 189.015507 Z M 0.741237 0.741237 " transform="matrix(0.0052699, 0, 0, 0.0052699, 8, 2)"/>
<path fill-rule="nonzero" fill="rgb(60.784314%, 85.882353%, 30.196078%)" fill-opacity="1" stroke-width="1" stroke-linecap="round" stroke-linejoin="round" stroke="rgb(0%, 0%, 0%)" stroke-opacity="1" stroke-miterlimit="4" d="M 0.741237 0.741237 L 189.015507 0.741237 L 189.015507 189.015507 L 0.741237 189.015507 Z M 0.741237 0.741237 " transform="matrix(0.0052699, 0, 0, 0.0052699, 9, 2)"/>
<path fill-rule="nonzero" fill="rgb(60.784314%, 85.882353%, 30.196078%)" fill-opacity="1" stroke-width="1" stroke-linecap="round" stroke-linejoin="round" stroke="rgb(0%, 0%, 0%)" stroke-opacity="1" stroke-miterlimit="4" d="M 0.741237 0.741237 L 189.015507 0.741237 L 189.015507 189.015507 L 0.741237 189.015507 Z M 0.741237 0.741237 " transform="matrix(0.0052699, 0, 0, 0.0052699, 0, 3)"/>
<path fill-rule="nonzero" fill="rgb(60.784314%, 85.882353%, 30.196078%)" fill-opacity="1" stroke-width="1" stroke-linecap="round" stroke-linejoin="round" stroke="rgb(0%, 0%, 0%)" stroke-opacity="1" stroke-miterlimit="4" d="M 0.741237 0.741237 L 189.015507 0.741237 L 189.015507 189.015507 L 0.741237 189.015507 Z M 0.741237 0.741237 " transform="matrix(0.0052699, 0, 0, 0.0052699, 1, 3)"/>
<path fill-rule="nonzero" fill="rgb(60.784314%, 85.882353%, 30.196078%)" fill-opacity="1" stroke-width="1" stroke-linecap="round" stroke-linejoin="round" stroke="rgb(0%, 0%, 0%)" stroke-opacity="1" stroke-miterlimit="4" d="M 0.741237 0.741237 L 189.015507 0.741237 L 189.015507 189.015507 L 0.741237 189.015507 Z M 0.741237 0.741237 " transform="matrix(0.0052699, 0, 0, 0.0052699, 2, 3)"/>
<path fill-rule="nonzero" fill="rgb(60.784314%, 85.882353%, 30.196078%)" fill-opacity="1" stroke-width="1" stroke-linecap="round" stroke-linejoin="round" stroke="rgb(0%, 0%, 0%)" stroke-opacity="1" stroke-miterlimit="4" d="M 0.741237 0.741237 L 189.015507 0.741237 L 189.015507 189.015507 L 0.741237 189.015507 Z M 0.741237 0.741237 " transform="matrix(0.0052699, 0, 0, 0.0052699, 3, 3)"/>
<path fill-rule="nonzero" fill="rgb(60.784314%, 85.882353%, 30.196078%)" fill-opacity="1" stroke-width="1" stroke-linecap="round" stroke-linejoin="round" stroke="rgb(0%, 0%, 0%)" stroke-opacity="1" stroke-miterlimit="4" d="M 0.741237 0.741237 L 189.015507 0.741237 L 189.015507 189.015507 L 0.741237 189.015507 Z M 0.741237 0.741237 " transform="matrix(0.0052699, 0, 0, 0.0052699, 4, 3)"/>
<path fill-rule="nonzero" fill="rgb(60.784314%, 85.882353%, 30.196078%)" fill-opacity="1" stroke-width="1" stroke-linecap="round" stroke-linejoin="round" stroke="rgb(0%, 0%, 0%)" stroke-opacity="1" stroke-miterlimit="4" d="M 0.741237 0.741237 L 189.015507 0.741237 L 189.015507 189.015507 L 0.741237 189.015507 Z M 0.741237 0.741237 " transform="matrix(0.0052699, 0, 0, 0.0052699, 5, 3)"/>
<path fill-rule="nonzero" fill="rgb(60.784314%, 85.882353%, 30.196078%)" fill-opacity="1" stroke-width="1" stroke-linecap="round" stroke-linejoin="round" stroke="rgb(0%, 0%, 0%)" stroke-opacity="1" stroke-miterlimit="4" d="M 0.741237 0.741237 L 189.015507 0.741237 L 189.015507 189.015507 L 0.741237 189.015507 Z M 0.741237 0.741237 " transform="matrix(0.0052699, 0, 0, 0.0052699, 6, 3)"/>
<path fill-rule="nonzero" fill="rgb(60.784314%, 85.882353%, 30.196078%)" fill-opacity="1" stroke-width="1" stroke-linecap="round" stroke-linejoin="round" stroke="rgb(0%, 0%, 0%)" stroke-opacity="1" stroke-miterlimit="4" d="M 0.741237 0.741237 L 189.015507 0.741237 L 189.015507 189.015507 L 0.741237 189.015507 Z M 0.741237 0.741237 " transform="matrix(0.0052699, 0, 0, 0.0052699, 7, 3)"/>
<path fill-rule="evenodd" fill="rgb(100%, 95.294118%, 58.039216%)" fill-opacity="1" stroke-width="5.625" stroke-linecap="round" stroke-linejoin="round" stroke="rgb(0%, 0%, 0%)" stroke-opacity="1" stroke-miterlimit="4" d="M 34.023906 168.380019 L 53.296075 95.738765 L 43.659991 59.418138 L 68.862058 40.887206 L 94.805363 59.418138 L 85.169279 95.738765 L 104.441448 168.380019 Z M 34.023906 168.380019 " transform="matrix(0.0052699, 0, 0, 0.0052699, 6.992572, 3.026716)"/>
<path fill-rule="evenodd" fill="rgb(83.137255%, 55.686275%, 8.235294%)" fill-opacity="1" stroke-width="6.47553" stroke-linecap="butt" stroke-linejoin="miter" stroke="rgb(0%, 0%, 0%)" stroke-opacity="1" stroke-miterlimit="4" d="M 99.55169 68.20785 L 139.539335 68.26554 C 141.943279 68.050496 144.562267 70.239396 144.230086 73.298087 L 144.865603 87.174527 C 144.533422 90.233218 142.344522 92.852206 139.285831 92.520025 L 99.298186 92.462335 C 96.239495 92.130154 94.275254 90.488479 94.607435 87.429788 L 94.519143 72.898601 C 94.304099 70.494657 96.492999 67.875669 99.55169 68.20785 Z M 99.55169 68.20785 " transform="matrix(0.00351248, -0.00293566, 0.00293566, 0.00351248, 6.914936, 3.349546)"/>
<path fill="none" stroke-width="6.47553" stroke-linecap="round" stroke-linejoin="round" stroke="rgb(0%, 0%, 0%)" stroke-opacity="1" stroke-miterlimit="4" d="M 128.614064 68.031266 L 68.632597 67.94473 " transform="matrix(0.00351248, -0.00293566, 0.00293566, 0.00351248, 6.914936, 3.349546)"/>
<path fill-rule="evenodd" fill="rgb(83.137255%, 55.686275%, 8.235294%)" fill-opacity="1" stroke-width="6.47553" stroke-linecap="butt" stroke-linejoin="miter" stroke="rgb(0%, 0%, 0%)" stroke-opacity="1" stroke-miterlimit="4" d="M 98.782606 68.079418 L 139.972223 68.029586 C 142.376167 67.814542 144.44793 70.658189 144.662974 73.062133 L 144.751266 87.59332 C 144.96631 89.997265 142.122663 92.069028 139.718719 92.284072 L 99.731074 92.226382 C 96.125158 92.548948 94.708142 90.252525 93.838351 87.301356 L 94.404806 73.317394 C 94.736987 70.258703 96.378662 68.294462 98.782606 68.079418 Z M 98.782606 68.079418 " transform="matrix(-0.00293566, -0.00351248, 0.00351248, -0.00293566, 7.320396, 3.82808)"/>
<path fill="none" stroke-width="6.47553" stroke-linecap="round" stroke-linejoin="round" stroke="rgb(0%, 0%, 0%)" stroke-opacity="1" stroke-miterlimit="4" d="M 128.499727 68.450059 L 69.065485 67.708777 " transform="matrix(-0.00293566, -0.00351248, 0.00351248, -0.00293566, 7.320396, 3.82808)"/>
<path fill-rule="nonzero" fill="rgb(0%, 0%, 0%)" fill-opacity="1" d="M 7.414062 3.394531 C 7.410156 3.425781 7.378906 3.449219 7.347656 3.445312 C 7.316406 3.4375 7.292969 3.410156 7.300781 3.375 C 7.304688 3.34375 7.335938 3.324219 7.367188 3.328125 C 7.398438 3.332031 7.421875 3.363281 7.414062 3.394531 Z M 7.414062 3.394531 "/>
<path fill-rule="evenodd" fill="rgb(83.137255%, 55.686275%, 8.235294%)" fill-opacity="1" stroke-width="6.47553" stroke-linecap="butt" stroke-linejoin="miter" stroke="rgb(0%, 0%, 0%)" stroke-opacity="1" stroke-miterlimit="4" d="M 99.565785 67.857559 L 139.55343 67.915249 C 142.612121 68.24743 144.576362 69.889105 144.244181 72.947796 L 144.332473 87.478983 C 144.547517 89.882928 142.358617 92.501916 139.299926 92.169735 L 99.312281 92.112045 C 96.908337 92.327089 94.289349 90.138188 94.62153 87.079497 L 93.986013 73.203057 C 94.318194 70.144366 96.507094 67.525378 99.565785 67.857559 Z M 99.565785 67.857559 " transform="matrix(-0.00351248, 0.00293566, -0.00293566, -0.00351248, 7.798929, 3.422619)"/>
<path fill="none" stroke-width="6.47553" stroke-linecap="round" stroke-linejoin="round" stroke="rgb(0%, 0%, 0%)" stroke-opacity="1" stroke-miterlimit="4" d="M 128.628159 67.680975 L 69.301439 68.141665 " transform="matrix(-0.00351248, 0.00293566, -0.00293566, -0.00351248, 7.798929, 3.422619)"/>
<path fill-rule="evenodd" fill="rgb(83.137255%, 55.686275%, 8.235294%)" fill-opacity="1" stroke-width="6.47553" stroke-linecap="butt" stroke-linejoin="miter" stroke="rgb(0%, 0%, 0%)" stroke-opacity="1" stroke-miterlimit="4" d="M 99.132897 68.093513 L 139.120542 68.151203 C 142.179233 68.483384 144.798221 70.672284 145.013265 73.076228 L 144.44681 87.06019 C 144.114629 90.118881 142.472954 92.083122 140.06901 92.298166 L 98.879393 92.347998 C 96.475449 92.563042 94.403686 89.719395 94.188642 87.315451 L 94.10035 72.784264 C 93.885306 70.38032 96.728953 68.308557 99.132897 68.093513 Z M 99.132897 68.093513 " transform="matrix(0.00293566, 0.00351248, -0.00351248, 0.00293566, 7.393469, 2.944086)"/>
<path fill="none" stroke-width="6.47553" stroke-linecap="round" stroke-linejoin="round" stroke="rgb(0%, 0%, 0%)" stroke-opacity="1" stroke-miterlimit="4" d="M 128.195271 67.916929 L 68.868551 68.377619 " transform="matrix(0.00293566, 0.00351248, -0.00351248, 0.00293566, 7.393469, 2.944086)"/>
<path fill-rule="evenodd" fill="rgb(83.137255%, 55.686275%, 8.235294%)" fill-opacity="1" stroke-width="5.625" stroke-linecap="butt" stroke-linejoin="miter" stroke="rgb(0%, 0%, 0%)" stroke-opacity="1" stroke-miterlimit="4" d="M 62.93216 130.576918 L 75.533194 130.576918 C 78.498143 130.576918 80.721855 133.541867 80.721855 135.765579 L 80.721855 163.191358 C 80.721855 166.156307 78.498143 168.380019 75.533194 168.380019 L 62.93216 168.380019 C 59.967211 168.380019 57.743499 166.156307 57.743499 163.191358 L 57.743499 135.765579 C 57.743499 133.541867 59.967211 130.576918 62.93216 130.576918 Z M 62.93216 130.576918 " transform="matrix(0.0052699, 0, 0, 0.0052699, 6.992572, 3.026716)"/>
<path fill-rule="nonzero" fill="rgb(100%, 95.294118%, 58.039216%)" fill-opacity="1" stroke-width="5.625" stroke-linecap="round" stroke-linejoin="round" stroke="rgb(0%, 0%, 0%)" stroke-opacity="1" stroke-miterlimit="4" d="M 181.603134 94.878372 C 181.603134 114.150542 165.295914 130.457762 146.023745 130.457762 C 126.010338 130.457762 110.444355 114.150542 110.444355 94.878372 C 110.444355 75.606203 126.010338 59.298983 146.023745 59.298983 C 165.295914 59.298983 181.603134 75.606203 181.603134 94.878372 Z M 181.603134 94.878372 " transform="matrix(0.0052699, 0, 0, 0.0052699, 7, 3)"/>
<path fill-rule="nonzero" fill="rgb(40.784314%, 71.764706%, 13.72549%)" fill-opacity="1" stroke-width="7.18868" stroke-linecap="round" stroke-linejoin="round" stroke="rgb(0%, 0%, 0%)" stroke-opacity="1" stroke-miterlimit="4" d="M -68.016085 73.385899 C -68.016085 61.121528 -76.576761 60.178115 -77.527947 47.913743 C -77.527947 35.649372 -80.381506 29.04548 -91.795741 29.04548 C -103.209975 29.04548 -106.063534 35.649372 -107.01472 47.913743 C -107.01472 60.178115 -115.575396 61.121528 -115.575396 73.385899 C -115.575396 86.593684 -105.112348 93.197576 -91.795741 93.197576 C -78.479134 93.197576 -68.016085 86.593684 -68.016085 73.385899 Z M -68.016085 73.385899 " transform="matrix(0.00410671, 0, 0, 0.00414055, 8.14651, 3.246923)"/>
<path fill-rule="nonzero" fill="rgb(50.196078%, 29.411765%, 0%)" fill-opacity="1" stroke-width="7.18868" stroke-linecap="round" stroke-linejoin="round" stroke="rgb(0%, 0%, 0%)" stroke-opacity="1" stroke-miterlimit="4" d="M -80.381506 72.442486 C -80.381506 78.102965 -86.088623 83.763444 -91.795741 83.763444 C -98.454044 83.763444 -103.209975 78.102965 -103.209975 72.442486 C -103.209975 65.838594 -98.454044 60.178115 -91.795741 60.178115 C -86.088623 60.178115 -80.381506 65.838594 -80.381506 72.442486 Z M -80.381506 72.442486 " transform="matrix(0.00410671, 0, 0, 0.00414055, 8.14651, 3.246923)"/>
<path fill-rule="nonzero" fill="rgb(60.784314%, 85.882353%, 30.196078%)" fill-opacity="1" stroke-width="1" stroke-linecap="round" stroke-linejoin="round" stroke="rgb(0%, 0%, 0%)" stroke-opacity="1" stroke-miterlimit="4" d="M 0.741237 0.741237 L 189.015507 0.741237 L 189.015507 189.015507 L 0.741237 189.015507 Z M 0.741237 0.741237 " transform="matrix(0.0052699, 0, 0, 0.0052699, 8, 3)"/>
<path fill-rule="nonzero" fill="rgb(60.784314%, 85.882353%, 30.196078%)" fill-opacity="1" stroke-width="1" stroke-linecap="round" stroke-linejoin="round" stroke="rgb(0%, 0%, 0%)" stroke-opacity="1" stroke-miterlimit="4" d="M 0.741237 0.741237 L 189.015507 0.741237 L 189.015507 189.015507 L 0.741237 189.015507 Z M 0.741237 0.741237 " transform="matrix(0.0052699, 0, 0, 0.0052699, 9, 3)"/>
<path fill-rule="nonzero" fill="rgb(60.784314%, 85.882353%, 30.196078%)" fill-opacity="1" stroke-width="1" stroke-linecap="round" stroke-linejoin="round" stroke="rgb(0%, 0%, 0%)" stroke-opacity="1" stroke-miterlimit="4" d="M 0.741237 0.741237 L 189.015507 0.741237 L 189.015507 189.015507 L 0.741237 189.015507 Z M 0.741237 0.741237 " transform="matrix(0.0052699, 0, 0, 0.0052699, 0, 4)"/>
<path fill-rule="nonzero" fill="rgb(60.784314%, 85.882353%, 30.196078%)" fill-opacity="1" stroke-width="1" stroke-linecap="round" stroke-linejoin="round" stroke="rgb(0%, 0%, 0%)" stroke-opacity="1" stroke-miterlimit="4" d="M 0.741237 0.741237 L 189.015507 0.741237 L 189.015507 189.015507 L 0.741237 189.015507 Z M 0.741237 0.741237 " transform="matrix(0.0052699, 0, 0, 0.0052699, 1, 4)"/>
<path fill-rule="nonzero" fill="rgb(60.784314%, 85.882353%, 30.196078%)" fill-opacity="1" stroke-width="1" stroke-linecap="round" stroke-linejoin="round" stroke="rgb(0%, 0%, 0%)" stroke-opacity="1" stroke-miterlimit="4" d="M 0.741237 0.741237 L 189.015507 0.741237 L 189.015507 189.015507 L 0.741237 189.015507 Z M 0.741237 0.741237 " transform="matrix(0.0052699, 0, 0, 0.0052699, 2, 4)"/>
<path fill-rule="nonzero" fill="rgb(60.784314%, 85.882353%, 30.196078%)" fill-opacity="1" stroke-width="1" stroke-linecap="round" stroke-linejoin="round" stroke="rgb(0%, 0%, 0%)" stroke-opacity="1" stroke-miterlimit="4" d="M 0.741237 0.741237 L 189.015507 0.741237 L 189.015507 189.015507 L 0.741237 189.015507 Z M 0.741237 0.741237 " transform="matrix(0.0052699, 0, 0, 0.0052699, 3, 4)"/>
<path fill-rule="nonzero" fill="rgb(60.784314%, 85.882353%, 30.196078%)" fill-opacity="1" stroke-width="1" stroke-linecap="round" stroke-linejoin="round" stroke="rgb(0%, 0%, 0%)" stroke-opacity="1" stroke-miterlimit="4" d="M 0.741237 0.741237 L 189.015507 0.741237 L 189.015507 189.015507 L 0.741237 189.015507 Z M 0.741237 0.741237 " transform="matrix(0.0052699, 0, 0, 0.0052699, 4, 4)"/>
<path fill-rule="nonzero" fill="rgb(60.784314%, 85.882353%, 30.196078%)" fill-opacity="1" stroke-width="1" stroke-linecap="round" stroke-linejoin="round" stroke="rgb(0%, 0%, 0%)" stroke-opacity="1" stroke-miterlimit="4" d="M 0.741237 0.741237 L 189.015507 0.741237 L 189.015507 189.015507 L 0.741237 189.015507 Z M 0.741237 0.741237 " transform="matrix(0.0052699, 0, 0, 0.0052699, 5, 4)"/>
<path fill-rule="nonzero" fill="rgb(60.784314%, 85.882353%, 30.196078%)" fill-opacity="1" stroke-width="1" stroke-linecap="round" stroke-linejoin="round" stroke="rgb(0%, 0%, 0%)" stroke-opacity="1" stroke-miterlimit="4" d="M 0.741237 0.741237 L 189.015507 0.741237 L 189.015507 189.015507 L 0.741237 189.015507 Z M 0.741237 0.741237 " transform="matrix(0.0052699, 0, 0, 0.0052699, 6, 4)"/>
<path fill-rule="nonzero" fill="rgb(60.784314%, 85.882353%, 30.196078%)" fill-opacity="1" stroke-width="1" stroke-linecap="round" stroke-linejoin="round" stroke="rgb(0%, 0%, 0%)" stroke-opacity="1" stroke-miterlimit="4" d="M 0.741237 0.741237 L 189.015507 0.741237 L 189.015507 189.015507 L 0.741237 189.015507 Z M 0.741237 0.741237 " transform="matrix(0.0052699, 0, 0, 0.0052699, 7, 4)"/>
<path fill-rule="nonzero" fill="rgb(60.784314%, 85.882353%, 30.196078%)" fill-opacity="1" stroke-width="1" stroke-linecap="round" stroke-linejoin="round" stroke="rgb(0%, 0%, 0%)" stroke-opacity="1" stroke-miterlimit="4" d="M 0.741237 0.741237 L 189.015507 0.741237 L 189.015507 189.015507 L 0.741237 189.015507 Z M 0.741237 0.741237 " transform="matrix(0.0052699, 0, 0, 0.0052699, 8, 4)"/>
<path fill-rule="nonzero" fill="rgb(60.784314%, 85.882353%, 30.196078%)" fill-opacity="1" stroke-width="1" stroke-linecap="round" stroke-linejoin="round" stroke="rgb(0%, 0%, 0%)" stroke-opacity="1" stroke-miterlimit="4" d="M 0.741237 0.741237 L 189.015507 0.741237 L 189.015507 189.015507 L 0.741237 189.015507 Z M 0.741237 0.741237 " transform="matrix(0.0052699, 0, 0, 0.0052699, 9, 4)"/>
<path fill-rule="nonzero" fill="rgb(60.784314%, 85.882353%, 30.196078%)" fill-opacity="1" stroke-width="1" stroke-linecap="round" stroke-linejoin="round" stroke="rgb(0%, 0%, 0%)" stroke-opacity="1" stroke-miterlimit="4" d="M 0.741237 0.741237 L 189.015507 0.741237 L 189.015507 189.015507 L 0.741237 189.015507 Z M 0.741237 0.741237 " transform="matrix(0.0052699, 0, 0, 0.0052699, 0, 5)"/>
<path fill-rule="nonzero" fill="rgb(60.784314%, 85.882353%, 30.196078%)" fill-opacity="1" stroke-width="1" stroke-linecap="round" stroke-linejoin="round" stroke="rgb(0%, 0%, 0%)" stroke-opacity="1" stroke-miterlimit="4" d="M 0.741237 0.741237 L 189.015507 0.741237 L 189.015507 189.015507 L 0.741237 189.015507 Z M 0.741237 0.741237 " transform="matrix(0.0052699, 0, 0, 0.0052699, 1, 5)"/>
<path fill-rule="nonzero" fill="rgb(60.784314%, 85.882353%, 30.196078%)" fill-opacity="1" stroke-width="1" stroke-linecap="round" stroke-linejoin="round" stroke="rgb(0%, 0%, 0%)" stroke-opacity="1" stroke-miterlimit="4" d="M 0.741237 0.741237 L 189.015507 0.741237 L 189.015507 189.015507 L 0.741237 189.015507 Z M 0.741237 0.741237 " transform="matrix(0.0052699, 0, 0, 0.0052699, 2, 5)"/>
<path fill-rule="nonzero" fill="rgb(60.784314%, 85.882353%, 30.196078%)" fill-opacity="1" stroke-width="1" stroke-linecap="round" stroke-linejoin="round" stroke="rgb(0%, 0%, 0%)" stroke-opacity="1" stroke-miterlimit="4" d="M 0.741237 0.741237 L 189.015507 0.741237 L 189.015507 189.015507 L 0.741237 189.015507 Z M 0.741237 0.741237 " transform="matrix(0.0052699, 0, 0, 0.0052699, 3, 5)"/>
<path fill-rule="nonzero" fill="rgb(60.784314%, 85.882353%, 30.196078%)" fill-opacity="1" stroke-width="1" stroke-linecap="round" stroke-linejoin="round" stroke="rgb(0%, 0%, 0%)" stroke-opacity="1" stroke-miterlimit="4" d="M 0.741237 0.741237 L 189.015507 0.741237 L 189.015507 189.015507 L 0.741237 189.015507 Z M 0.741237 0.741237 " transform="matrix(0.0052699, 0, 0, 0.0052699, 4, 5)"/>
<path fill-rule="nonzero" fill="rgb(60.784314%, 85.882353%, 30.196078%)" fill-opacity="1" stroke-width="1" stroke-linecap="round" stroke-linejoin="round" stroke="rgb(0%, 0%, 0%)" stroke-opacity="1" stroke-miterlimit="4" d="M 0.741237 0.741237 L 189.015507 0.741237 L 189.015507 189.015507 L 0.741237 189.015507 Z M 0.741237 0.741237 " transform="matrix(0.0052699, 0, 0, 0.0052699, 5, 5)"/>
<path fill-rule="nonzero" fill="rgb(60.784314%, 85.882353%, 30.196078%)" fill-opacity="1" stroke-width="1" stroke-linecap="round" stroke-linejoin="round" stroke="rgb(0%, 0%, 0%)" stroke-opacity="1" stroke-miterlimit="4" d="M 0.741237 0.741237 L 189.015507 0.741237 L 189.015507 189.015507 L 0.741237 189.015507 Z M 0.741237 0.741237 " transform="matrix(0.0052699, 0, 0, 0.0052699, 6, 5)"/>
<path fill-rule="nonzero" fill="rgb(60.784314%, 85.882353%, 30.196078%)" fill-opacity="1" stroke-width="1" stroke-linecap="round" stroke-linejoin="round" stroke="rgb(0%, 0%, 0%)" stroke-opacity="1" stroke-miterlimit="4" d="M 0.741237 0.741237 L 189.015507 0.741237 L 189.015507 189.015507 L 0.741237 189.015507 Z M 0.741237 0.741237 " transform="matrix(0.0052699, 0, 0, 0.0052699, 7, 5)"/>
<path fill-rule="nonzero" fill="rgb(60.784314%, 85.882353%, 30.196078%)" fill-opacity="1" stroke-width="1" stroke-linecap="round" stroke-linejoin="round" stroke="rgb(0%, 0%, 0%)" stroke-opacity="1" stroke-miterlimit="4" d="M 0.741237 0.741237 L 189.015507 0.741237 L 189.015507 189.015507 L 0.741237 189.015507 Z M 0.741237 0.741237 " transform="matrix(0.0052699, 0, 0, 0.0052699, 8, 5)"/>
<path fill-rule="nonzero" fill="rgb(60.784314%, 85.882353%, 30.196078%)" fill-opacity="1" stroke-width="1" stroke-linecap="round" stroke-linejoin="round" stroke="rgb(0%, 0%, 0%)" stroke-opacity="1" stroke-miterlimit="4" d="M 0.741237 0.741237 L 189.015507 0.741237 L 189.015507 189.015507 L 0.741237 189.015507 Z M 0.741237 0.741237 " transform="matrix(0.0052699, 0, 0, 0.0052699, 9, 5)"/>
<path fill-rule="nonzero" fill="rgb(60.784314%, 85.882353%, 30.196078%)" fill-opacity="1" stroke-width="1" stroke-linecap="round" stroke-linejoin="round" stroke="rgb(0%, 0%, 0%)" stroke-opacity="1" stroke-miterlimit="4" d="M 0.741237 0.741237 L 189.015507 0.741237 L 189.015507 189.015507 L 0.741237 189.015507 Z M 0.741237 0.741237 " transform="matrix(0.0052699, 0, 0, 0.0052699, 0, 6)"/>
<path fill-rule="nonzero" fill="rgb(60.784314%, 85.882353%, 30.196078%)" fill-opacity="1" stroke-width="1" stroke-linecap="round" stroke-linejoin="round" stroke="rgb(0%, 0%, 0%)" stroke-opacity="1" stroke-miterlimit="4" d="M 0.741237 0.741237 L 189.015507 0.741237 L 189.015507 189.015507 L 0.741237 189.015507 Z M 0.741237 0.741237 " transform="matrix(0.0052699, 0, 0, 0.0052699, 1, 6)"/>
<path fill-rule="nonzero" fill="rgb(60.784314%, 85.882353%, 30.196078%)" fill-opacity="1" stroke-width="1" stroke-linecap="round" stroke-linejoin="round" stroke="rgb(0%, 0%, 0%)" stroke-opacity="1" stroke-miterlimit="4" d="M 0.741237 0.741237 L 189.015507 0.741237 L 189.015507 189.015507 L 0.741237 189.015507 Z M 0.741237 0.741237 " transform="matrix(0.0052699, 0, 0, 0.0052699, 2, 6)"/>
<path fill-rule="nonzero" fill="rgb(60.784314%, 85.882353%, 30.196078%)" fill-opacity="1" stroke-width="1" stroke-linecap="round" stroke-linejoin="round" stroke="rgb(0%, 0%, 0%)" stroke-opacity="1" stroke-miterlimit="4" d="M 0.741237 0.741237 L 189.015507 0.741237 L 189.015507 189.015507 L 0.741237 189.015507 Z M 0.741237 0.741237 " transform="matrix(0.0052699, 0, 0, 0.0052699, 3, 6)"/>
<path fill-rule="nonzero" fill="rgb(60.784314%, 85.882353%, 30.196078%)" fill-opacity="1" stroke-width="1" stroke-linecap="round" stroke-linejoin="round" stroke="rgb(0%, 0%, 0%)" stroke-opacity="1" stroke-miterlimit="4" d="M 0.741237 0.741237 L 189.015507 0.741237 L 189.015507 189.015507 L 0.741237 189.015507 Z M 0.741237 0.741237 " transform="matrix(0.0052699, 0, 0, 0.0052699, 4, 6)"/>
<path fill-rule="nonzero" fill="rgb(60.784314%, 85.882353%, 30.196078%)" fill-opacity="1" stroke-width="1" stroke-linecap="round" stroke-linejoin="round" stroke="rgb(0%, 0%, 0%)" stroke-opacity="1" stroke-miterlimit="4" d="M 0.741237 0.741237 L 189.015507 0.741237 L 189.015507 189.015507 L 0.741237 189.015507 Z M 0.741237 0.741237 " transform="matrix(0.0052699, 0, 0, 0.0052699, 5, 6)"/>
<path fill-rule="nonzero" fill="rgb(60.784314%, 85.882353%, 30.196078%)" fill-opacity="1" stroke-width="1" stroke-linecap="round" stroke-linejoin="round" stroke="rgb(0%, 0%, 0%)" stroke-opacity="1" stroke-miterlimit="4" d="M 0.741237 0.741237 L 189.015507 0.741237 L 189.015507 189.015507 L 0.741237 189.015507 Z M 0.741237 0.741237 " transform="matrix(0.0052699, 0, 0, 0.0052699, 6, 6)"/>
<path fill-rule="nonzero" fill="rgb(60.784314%, 85.882353%, 30.196078%)" fill-opacity="1" stroke-width="1" stroke-linecap="round" stroke-linejoin="round" stroke="rgb(0%, 0%, 0%)" stroke-opacity="1" stroke-miterlimit="4" d="M 0.741237 0.741237 L 189.015507 0.741237 L 189.015507 189.015507 L 0.741237 189.015507 Z M 0.741237 0.741237 " transform="matrix(0.0052699, 0, 0, 0.0052699, 7, 6)"/>
<path fill-rule="nonzero" fill="rgb(60.784314%, 85.882353%, 30.196078%)" fill-opacity="1" stroke-width="1" stroke-linecap="round" stroke-linejoin="round" stroke="rgb(0%, 0%, 0%)" stroke-opacity="1" stroke-miterlimit="4" d="M 0.741237 0.741237 L 189.015507 0.741237 L 189.015507 189.015507 L 0.741237 189.015507 Z M 0.741237 0.741237 " transform="matrix(0.0052699, 0, 0, 0.0052699, 8, 6)"/>
<path fill-rule="nonzero" fill="rgb(60.784314%, 85.882353%, 30.196078%)" fill-opacity="1" stroke-width="1" stroke-linecap="round" stroke-linejoin="round" stroke="rgb(0%, 0%, 0%)" stroke-opacity="1" stroke-miterlimit="4" d="M 0.741237 0.741237 L 189.015507 0.741237 L 189.015507 189.015507 L 0.741237 189.015507 Z M 0.741237 0.741237 " transform="matrix(0.0052699, 0, 0, 0.0052699, 9, 6)"/>
<path fill-rule="nonzero" fill="rgb(60.784314%, 85.882353%, 30.196078%)" fill-opacity="1" stroke-width="1" stroke-linecap="round" stroke-linejoin="round" stroke="rgb(0%, 0%, 0%)" stroke-opacity="1" stroke-miterlimit="4" d="M 0.741237 0.741237 L 189.015507 0.741237 L 189.015507 189.015507 L 0.741237 189.015507 Z M 0.741237 0.741237 " transform="matrix(0.0052699, 0, 0, 0.0052699, 0, 7)"/>
<path fill-rule="nonzero" fill="rgb(60.784314%, 85.882353%, 30.196078%)" fill-opacity="1" stroke-width="1" stroke-linecap="round" stroke-linejoin="round" stroke="rgb(0%, 0%, 0%)" stroke-opacity="1" stroke-miterlimit="4" d="M 0.741237 0.741237 L 189.015507 0.741237 L 189.015507 189.015507 L 0.741237 189.015507 Z M 0.741237 0.741237 " transform="matrix(0.0052699, 0, 0, 0.0052699, 1, 7)"/>
<path fill-rule="nonzero" fill="rgb(60.784314%, 85.882353%, 30.196078%)" fill-opacity="1" stroke-width="1" stroke-linecap="round" stroke-linejoin="round" stroke="rgb(0%, 0%, 0%)" stroke-opacity="1" stroke-miterlimit="4" d="M 0.741237 0.741237 L 189.015507 0.741237 L 189.015507 189.015507 L 0.741237 189.015507 Z M 0.741237 0.741237 " transform="matrix(0.0052699, 0, 0, 0.0052699, 2, 7)"/>
<path fill-rule="nonzero" fill="rgb(60.784314%, 85.882353%, 30.196078%)" fill-opacity="1" stroke-width="1" stroke-linecap="round" stroke-linejoin="round" stroke="rgb(0%, 0%, 0%)" stroke-opacity="1" stroke-miterlimit="4" d="M 0.741237 0.741237 L 189.015507 0.741237 L 189.015507 189.015507 L 0.741237 189.015507 Z M 0.741237 0.741237 " transform="matrix(0.0052699, 0, 0, 0.0052699, 3, 7)"/>
<path fill-rule="nonzero" fill="rgb(60.784314%, 85.882353%, 30.196078%)" fill-opacity="1" stroke-width="1" stroke-linecap="round" stroke-linejoin="round" stroke="rgb(0%, 0%, 0%)" stroke-opacity="1" stroke-miterlimit="4" d="M 0.741237 0.741237 L 189.015507 0.741237 L 189.015507 189.015507 L 0.741237 189.015507 Z M 0.741237 0.741237 " transform="matrix(0.0052699, 0, 0, 0.0052699, 4, 7)"/>
<path fill-rule="nonzero" fill="rgb(60.784314%, 85.882353%, 30.196078%)" fill-opacity="1" stroke-width="1" stroke-linecap="round" stroke-linejoin="round" stroke="rgb(0%, 0%, 0%)" stroke-opacity="1" stroke-miterlimit="4" d="M 0.741237 0.741237 L 189.015507 0.741237 L 189.015507 189.015507 L 0.741237 189.015507 Z M 0.741237 0.741237 " transform="matrix(0.0052699, 0, 0, 0.0052699, 5, 7)"/>
<path fill-rule="nonzero" fill="rgb(60.784314%, 85.882353%, 30.196078%)" fill-opacity="1" stroke-width="1" stroke-linecap="round" stroke-linejoin="round" stroke="rgb(0%, 0%, 0%)" stroke-opacity="1" stroke-miterlimit="4" d="M 0.741237 0.741237 L 189.015507 0.741237 L 189.015507 189.015507 L 0.741237 189.015507 Z M 0.741237 0.741237 " transform="matrix(0.0052699, 0, 0, 0.0052699, 6, 7)"/>
<path fill-rule="nonzero" fill="rgb(60.784314%, 85.882353%, 30.196078%)" fill-opacity="1" stroke-width="1" stroke-linecap="round" stroke-linejoin="round" stroke="rgb(0%, 0%, 0%)" stroke-opacity="1" stroke-miterlimit="4" d="M 0.741237 0.741237 L 189.015507 0.741237 L 189.015507 189.015507 L 0.741237 189.015507 Z M 0.741237 0.741237 " transform="matrix(0.0052699, 0, 0, 0.0052699, 7, 7)"/>
<path fill-rule="nonzero" fill="rgb(60.784314%, 85.882353%, 30.196078%)" fill-opacity="1" stroke-width="1" stroke-linecap="round" stroke-linejoin="round" stroke="rgb(0%, 0%, 0%)" stroke-opacity="1" stroke-miterlimit="4" d="M 0.741237 0.741237 L 189.015507 0.741237 L 189.015507 189.015507 L 0.741237 189.015507 Z M 0.741237 0.741237 " transform="matrix(0.0052699, 0, 0, 0.0052699, 8, 7)"/>
<path fill-rule="nonzero" fill="rgb(60.784314%, 85.882353%, 30.196078%)" fill-opacity="1" stroke-width="1" stroke-linecap="round" stroke-linejoin="round" stroke="rgb(0%, 0%, 0%)" stroke-opacity="1" stroke-miterlimit="4" d="M 0.741237 0.741237 L 189.015507 0.741237 L 189.015507 189.015507 L 0.741237 189.015507 Z M 0.741237 0.741237 " transform="matrix(0.0052699, 0, 0, 0.0052699, 9, 7)"/>
<path fill-rule="nonzero" fill="rgb(60.784314%, 85.882353%, 30.196078%)" fill-opacity="1" stroke-width="1" stroke-linecap="round" stroke-linejoin="round" stroke="rgb(0%, 0%, 0%)" stroke-opacity="1" stroke-miterlimit="4" d="M 0.741237 0.741237 L 189.015507 0.741237 L 189.015507 189.015507 L 0.741237 189.015507 Z M 0.741237 0.741237 " transform="matrix(0.0052699, 0, 0, 0.0052699, 0, 8)"/>
<path fill-rule="nonzero" fill="rgb(60.784314%, 85.882353%, 30.196078%)" fill-opacity="1" stroke-width="1" stroke-linecap="round" stroke-linejoin="round" stroke="rgb(0%, 0%, 0%)" stroke-opacity="1" stroke-miterlimit="4" d="M 0.741237 0.741237 L 189.015507 0.741237 L 189.015507 189.015507 L 0.741237 189.015507 Z M 0.741237 0.741237 " transform="matrix(0.0052699, 0, 0, 0.0052699, 1, 8)"/>
<path fill-rule="nonzero" fill="rgb(95.294118%, 45.098039%, 16.078431%)" fill-opacity="1" stroke-width="1" stroke-linecap="round" stroke-linejoin="round" stroke="rgb(0%, 0%, 0%)" stroke-opacity="1" stroke-miterlimit="4" d="M 0.741237 0.741237 L 189.015507 0.741237 L 189.015507 189.015507 L 0.741237 189.015507 Z M 0.741237 0.741237 " transform="matrix(0.0052699, 0, 0, 0.0052699, 2, 8)"/>
<path fill="none" stroke-width="5.625" stroke-linecap="round" stroke-linejoin="miter" stroke="rgb(0%, 0%, 0%)" stroke-opacity="1" stroke-miterlimit="4" d="M 23.191675 140.835084 L 23.191675 80.053627 " transform="matrix(0.0052699, 0, 0, 0.0052699, 2.010595, 8)"/>
<path fill="none" stroke-width="5.625" stroke-linecap="round" stroke-linejoin="miter" stroke="rgb(0%, 0%, 0%)" stroke-opacity="1" stroke-miterlimit="4" d="M 131.412318 140.835084 L 131.412318 80.053627 " transform="matrix(0.0052699, 0, 0, 0.0052699, 2.010595, 8)"/>
<path fill-rule="evenodd" fill="rgb(67.843137%, 37.254902%, 0%)" fill-opacity="1" stroke-width="5.625" stroke-linecap="butt" stroke-linejoin="miter" stroke="rgb(0%, 0%, 0%)" stroke-opacity="1" stroke-miterlimit="4" d="M 111.92683 114.891779 L 120.08044 114.891779 C 123.045389 114.891779 125.269101 117.115491 125.269101 120.08044 L 125.269101 128.23405 C 125.269101 131.198999 123.045389 133.422711 120.08044 133.422711 L 111.92683 133.422711 C 108.961881 133.422711 106.738169 131.198999 106.738169 128.23405 L 106.738169 120.08044 C 106.738169 117.115491 108.961881 114.891779 111.92683 114.891779 Z M 111.92683 114.891779 " transform="matrix(0.0052699, 0, 0, 0.0052699, 2, 8)"/>
<path fill-rule="evenodd" fill="rgb(97.647059%, 76.862745%, 25.098039%)" fill-opacity="1" stroke-width="5.625" stroke-linecap="butt" stroke-linejoin="miter" stroke="rgb(0%, 0%, 0%)" stroke-opacity="1" stroke-miterlimit="4" d="M 22.978356 133.422711 L 135.646423 133.422711 C 140.835084 133.422711 146.023745 138.611372 146.023745 144.54127 L 146.023745 167.519626 C 146.023745 173.449524 140.835084 177.896948 135.646423 177.896948 L 22.978356 177.896948 C 17.048458 177.896948 12.601034 173.449524 12.601034 167.519626 L 12.601034 144.54127 C 12.601034 138.611372 17.048458 133.422711 22.978356 133.422711 Z M 22.978356 133.422711 " transform="matrix(0.0052699, 0, 0, 0.0052699, 2, 8)"/>
<path fill-rule="evenodd" fill="rgb(98.039216%, 98.039216%, 98.039216%)" fill-opacity="1" stroke-width="5.625" stroke-linecap="round" stroke-linejoin="miter" stroke="rgb(0%, 0%, 0%)" stroke-opacity="1" stroke-miterlimit="4" d="M 14.796513 -99.919369 L 14.796513 -56.186369 C 14.796513 -52.480183 18.502699 -48.773997 22.208886 -48.773997 C 26.65631 -48.773997 30.362496 -52.480183 30.362496 -56.186369 L 30.362496 -99.919369 Z M 14.796513 -99.919369 " transform="matrix(0.0052699, 0, 0, 0.0052699, 2.062649, 8.780472)"/>
<path fill-rule="evenodd" fill="rgb(80%, 23.137255%, 0.784314%)" fill-opacity="1" stroke-width="5.625" stroke-linecap="round" stroke-linejoin="miter" stroke="rgb(0%, 0%, 0%)" stroke-opacity="1" stroke-miterlimit="4" d="M -0.0282326 -99.919369 L -0.0282326 -56.186369 C -0.0282326 -52.480183 3.677954 -48.773997 7.38414 -48.773997 C 11.831564 -48.773997 14.796513 -52.480183 14.796513 -56.186369 L 14.796513 -99.919369 Z M -0.0282326 -99.919369 " transform="matrix(0.0052699, 0, 0, 0.0052699, 2.062649, 8.780472)"/>
<path fill-rule="evenodd" fill="rgb(98.039216%, 98.039216%, 98.039216%)" fill-opacity="1" stroke-width="5.625" stroke-linecap="round" stroke-linejoin="miter" stroke="rgb(0%, 0%, 0%)" stroke-opacity="1" stroke-miterlimit="4" d="M 45.187242 -99.919369 L 45.187242 -56.186369 C 45.187242 -52.480183 48.152191 -48.773997 52.599615 -48.773997 C 56.305801 -48.773997 60.011987 -52.480183 60.011987 -56.186369 L 60.011987 -99.919369 Z M 45.187242 -99.919369 " transform="matrix(0.0052699, 0, 0, 0.0052699, 2.062649, 8.780472)"/>
<path fill-rule="evenodd" fill="rgb(80%, 23.137255%, 0.784314%)" fill-opacity="1" stroke-width="5.625" stroke-linecap="round" stroke-linejoin="miter" stroke="rgb(0%, 0%, 0%)" stroke-opacity="1" stroke-miterlimit="4" d="M 30.362496 -99.919369 L 30.362496 -56.186369 C 30.362496 -52.480183 33.327445 -48.773997 37.774869 -48.773997 C 41.481055 -48.773997 45.187242 -52.480183 45.187242 -56.186369 L 45.187242 -99.919369 Z M 30.362496 -99.919369 " transform="matrix(0.0052699, 0, 0, 0.0052699, 2.062649, 8.780472)"/>
<path fill-rule="evenodd" fill="rgb(98.039216%, 98.039216%, 98.039216%)" fill-opacity="1" stroke-width="5.625" stroke-linecap="round" stroke-linejoin="miter" stroke="rgb(0%, 0%, 0%)" stroke-opacity="1" stroke-miterlimit="4" d="M 74.836733 -99.919369 L 74.836733 -56.186369 C 74.836733 -52.480183 77.801682 -48.773997 82.249106 -48.773997 C 85.955292 -48.773997 89.661479 -52.480183 89.661479 -56.186369 L 89.661479 -99.919369 Z M 74.836733 -99.919369 " transform="matrix(0.0052699, 0, 0, 0.0052699, 2.062649, 8.780472)"/>
<path fill-rule="evenodd" fill="rgb(80%, 23.137255%, 0.784314%)" fill-opacity="1" stroke-width="5.625" stroke-linecap="round" stroke-linejoin="miter" stroke="rgb(0%, 0%, 0%)" stroke-opacity="1" stroke-miterlimit="4" d="M 59.27075 -99.919369 L 59.27075 -56.186369 C 59.27075 -52.480183 62.976936 -48.773997 67.42436 -48.773997 C 71.130547 -48.773997 74.836733 -52.480183 74.836733 -56.186369 L 74.836733 -99.919369 Z M 59.27075 -99.919369 " transform="matrix(0.0052699, 0, 0, 0.0052699, 2.062649, 8.780472)"/>
<path fill-rule="evenodd" fill="rgb(98.039216%, 98.039216%, 98.039216%)" fill-opacity="1" stroke-width="5.625" stroke-linecap="round" stroke-linejoin="miter" stroke="rgb(0%, 0%, 0%)" stroke-opacity="1" stroke-miterlimit="4" d="M 104.486224 -99.919369 L 104.486224 -56.186369 C 104.486224 -52.480183 108.192411 -48.773997 111.898597 -48.773997 C 116.346021 -48.773997 119.31097 -52.480183 119.31097 -56.186369 L 119.31097 -99.919369 Z M 104.486224 -99.919369 " transform="matrix(0.0052699, 0, 0, 0.0052699, 2.062649, 8.780472)"/>
<path fill-rule="evenodd" fill="rgb(80%, 23.137255%, 0.784314%)" fill-opacity="1" stroke-width="5.625" stroke-linecap="round" stroke-linejoin="miter" stroke="rgb(0%, 0%, 0%)" stroke-opacity="1" stroke-miterlimit="4" d="M 89.661479 -99.919369 L 89.661479 -56.186369 C 89.661479 -52.480183 92.626428 -48.773997 97.073851 -48.773997 C 101.521275 -48.773997 104.486224 -52.480183 104.486224 -56.186369 L 104.486224 -99.919369 Z M 89.661479 -99.919369 " transform="matrix(0.0052699, 0, 0, 0.0052699, 2.062649, 8.780472)"/>
<path fill-rule="evenodd" fill="rgb(80%, 23.137255%, 0.784314%)" fill-opacity="1" stroke-width="5.625" stroke-linecap="round" stroke-linejoin="miter" stroke="rgb(0%, 0%, 0%)" stroke-opacity="1" stroke-miterlimit="4" d="M 119.31097 -99.919369 L 119.31097 -56.186369 C 119.31097 -52.480183 123.017156 -48.773997 127.46458 -48.773997 C 131.170766 -48.773997 134.876953 -52.480183 134.876953 -56.186369 L 134.876953 -99.919369 Z M 119.31097 -99.919369 " transform="matrix(0.0052699, 0, 0, 0.0052699, 2.062649, 8.780472)"/>
<path fill-rule="evenodd" fill="rgb(73.72549%, 14.117647%, 36.470588%)" fill-opacity="1" stroke-width="5.625" stroke-linecap="butt" stroke-linejoin="miter" stroke="rgb(0%, 0%, 0%)" stroke-opacity="1" stroke-miterlimit="4" d="M 37.767192 115.961052 L 51.8507 115.961052 C 54.074412 115.961052 57.039361 118.184763 57.039361 121.149713 L 57.039361 149.316729 C 57.039361 152.281678 54.074412 154.50539 51.8507 154.50539 L 37.767192 154.50539 C 34.802243 154.50539 32.578531 152.281678 32.578531 149.316729 L 32.578531 121.149713 C 32.578531 118.184763 34.802243 115.961052 37.767192 115.961052 Z M 37.767192 115.961052 " transform="matrix(0.0052699, 0, 0, 0.0052699, 1.98847, 8.142803)"/>
<path fill-rule="evenodd" fill="rgb(73.72549%, 14.117647%, 36.470588%)" fill-opacity="1" stroke-width="5.625" stroke-linecap="butt" stroke-linejoin="miter" stroke="rgb(0%, 0%, 0%)" stroke-opacity="1" stroke-miterlimit="4" d="M 62.228022 115.961052 L 76.311531 115.961052 C 78.535242 115.961052 81.500192 118.184763 81.500192 121.149713 L 81.500192 149.316729 C 81.500192 152.281678 78.535242 154.50539 76.311531 154.50539 L 62.228022 154.50539 C 59.263073 154.50539 57.039361 152.281678 57.039361 149.316729 L 57.039361 121.149713 C 57.039361 118.184763 59.263073 115.961052 62.228022 115.961052 Z M 62.228022 115.961052 " transform="matrix(0.0052699, 0, 0, 0.0052699, 1.98847, 8.142803)"/>
<path fill-rule="evenodd" fill="rgb(73.72549%, 14.117647%, 36.470588%)" fill-opacity="1" stroke-width="5.625" stroke-linecap="butt" stroke-linejoin="miter" stroke="rgb(0%, 0%, 0%)" stroke-opacity="1" stroke-miterlimit="4" d="M 86.688853 115.961052 L 100.772361 115.961052 C 102.996073 115.961052 105.961022 118.184763 105.961022 121.149713 L 105.961022 149.316729 C 105.961022 152.281678 102.996073 154.50539 100.772361 154.50539 L 86.688853 154.50539 C 83.723903 154.50539 81.500192 152.281678 81.500192 149.316729 L 81.500192 121.149713 C 81.500192 118.184763 83.723903 115.961052 86.688853 115.961052 Z M 86.688853 115.961052 " transform="matrix(0.0052699, 0, 0, 0.0052699, 1.98847, 8.142803)"/>
<path fill-rule="evenodd" fill="rgb(73.72549%, 14.117647%, 36.470588%)" fill-opacity="1" stroke-width="5.625" stroke-linecap="butt" stroke-linejoin="miter" stroke="rgb(0%, 0%, 0%)" stroke-opacity="1" stroke-miterlimit="4" d="M 111.149683 115.961052 L 125.233191 115.961052 C 127.456903 115.961052 130.421852 118.184763 130.421852 121.149713 L 130.421852 149.316729 C 130.421852 152.281678 127.456903 154.50539 125.233191 154.50539 L 111.149683 154.50539 C 108.184734 154.50539 105.961022 152.281678 105.961022 149.316729 L 105.961022 121.149713 C 105.961022 118.184763 108.184734 115.961052 111.149683 115.961052 Z M 111.149683 115.961052 " transform="matrix(0.0052699, 0, 0, 0.0052699, 1.98847, 8.142803)"/>
<path fill-rule="nonzero" fill="rgb(100%, 95.294118%, 58.039216%)" fill-opacity="1" stroke-width="5.625" stroke-linecap="round" stroke-linejoin="round" stroke="rgb(0%, 0%, 0%)" stroke-opacity="1" stroke-miterlimit="4" d="M 181.603134 95.203813 C 181.603134 114.475982 165.295914 130.041965 146.023745 130.041965 C 126.010338 130.041965 110.444355 114.475982 110.444355 95.203813 C 110.444355 75.190406 126.010338 59.624424 146.023745 59.624424 C 165.295914 59.624424 181.603134 75.190406 181.603134 95.203813 Z M 181.603134 95.203813 " transform="matrix(0.0052699, 0, 0, 0.0052699, 2, 7.73266)"/>
<path fill-rule="evenodd" fill="rgb(73.72549%, 14.117647%, 36.470588%)" fill-opacity="1" stroke-width="11.6672" stroke-linecap="butt" stroke-linejoin="miter" stroke="rgb(0%, 0%, 0%)" stroke-opacity="1" stroke-miterlimit="4" d="M -141.336399 52.915918 C -111.489135 89.028694 -149.190943 104.075684 -152.33276 125.141471 C -155.474577 146.207257 -135.052765 153.730752 -122.485496 150.721354 C -108.347318 149.216655 -94.20914 140.188461 -100.492775 116.113277 C -108.347318 86.019296 -144.478217 69.467607 -131.910948 42.383025 " transform="matrix(0.00248662, 0, 0, 0.00259603, 3.081918, 7.97591)"/>
<path fill="none" stroke-width="11.6672" stroke-linecap="round" stroke-linejoin="miter" stroke="rgb(0%, 0%, 0%)" stroke-opacity="1" stroke-miterlimit="4" d="M -122.485496 104.075684 C -111.489135 122.132073 -109.918227 135.674364 -127.198222 137.179063 " transform="matrix(0.00248662, 0, 0, 0.00259603, 3.081918, 7.97591)"/>
<path fill-rule="nonzero" fill="rgb(60.784314%, 85.882353%, 30.196078%)" fill-opacity="1" stroke-width="1" stroke-linecap="round" stroke-linejoin="round" stroke="rgb(0%, 0%, 0%)" stroke-opacity="1" stroke-miterlimit="4" d="M 0.741237 0.741237 L 189.015507 0.741237 L 189.015507 189.015507 L 0.741237 189.015507 Z M 0.741237 0.741237 " transform="matrix(0.0052699, 0, 0, 0.0052699, 3, 8)"/>
<path fill-rule="nonzero" fill="rgb(60.784314%, 85.882353%, 30.196078%)" fill-opacity="1" stroke-width="1" stroke-linecap="round" stroke-linejoin="round" stroke="rgb(0%, 0%, 0%)" stroke-opacity="1" stroke-miterlimit="4" d="M 0.741237 0.741237 L 189.015507 0.741237 L 189.015507 189.015507 L 0.741237 189.015507 Z M 0.741237 0.741237 " transform="matrix(0.0052699, 0, 0, 0.0052699, 4, 8)"/>
<path fill-rule="nonzero" fill="rgb(60.784314%, 85.882353%, 30.196078%)" fill-opacity="1" stroke-width="1" stroke-linecap="round" stroke-linejoin="round" stroke="rgb(0%, 0%, 0%)" stroke-opacity="1" stroke-miterlimit="4" d="M 0.741237 0.741237 L 189.015507 0.741237 L 189.015507 189.015507 L 0.741237 189.015507 Z M 0.741237 0.741237 " transform="matrix(0.0052699, 0, 0, 0.0052699, 5, 8)"/>
<path fill-rule="nonzero" fill="rgb(60.784314%, 85.882353%, 30.196078%)" fill-opacity="1" stroke-width="1" stroke-linecap="round" stroke-linejoin="round" stroke="rgb(0%, 0%, 0%)" stroke-opacity="1" stroke-miterlimit="4" d="M 0.741237 0.741237 L 189.015507 0.741237 L 189.015507 189.015507 L 0.741237 189.015507 Z M 0.741237 0.741237 " transform="matrix(0.0052699, 0, 0, 0.0052699, 6, 8)"/>
<path fill-rule="nonzero" fill="rgb(60.784314%, 85.882353%, 30.196078%)" fill-opacity="1" stroke-width="1" stroke-linecap="round" stroke-linejoin="round" stroke="rgb(0%, 0%, 0%)" stroke-opacity="1" stroke-miterlimit="4" d="M 0.741237 0.741237 L 189.015507 0.741237 L 189.015507 189.015507 L 0.741237 189.015507 Z M 0.741237 0.741237 " transform="matrix(0.0052699, 0, 0, 0.0052699, 7, 8)"/>
<path fill-rule="nonzero" fill="rgb(60.784314%, 85.882353%, 30.196078%)" fill-opacity="1" stroke-width="1" stroke-linecap="round" stroke-linejoin="round" stroke="rgb(0%, 0%, 0%)" stroke-opacity="1" stroke-miterlimit="4" d="M 0.741237 0.741237 L 189.015507 0.741237 L 189.015507 189.015507 L 0.741237 189.015507 Z M 0.741237 0.741237 " transform="matrix(0.0052699, 0, 0, 0.0052699, 8, 8)"/>
<path fill-rule="nonzero" fill="rgb(60.784314%, 85.882353%, 30.196078%)" fill-opacity="1" stroke-width="1" stroke-linecap="round" stroke-linejoin="round" stroke="rgb(0%, 0%, 0%)" stroke-opacity="1" stroke-miterlimit="4" d="M 0.741237 0.741237 L 189.015507 0.741237 L 189.015507 189.015507 L 0.741237 189.015507 Z M 0.741237 0.741237 " transform="matrix(0.0052699, 0, 0, 0.0052699, 9, 8)"/>
<path fill-rule="nonzero" fill="rgb(60.784314%, 85.882353%, 30.196078%)" fill-opacity="1" stroke-width="1" stroke-linecap="round" stroke-linejoin="round" stroke="rgb(0%, 0%, 0%)" stroke-opacity="1" stroke-miterlimit="4" d="M 0.741237 0.741237 L 189.015507 0.741237 L 189.015507 189.015507 L 0.741237 189.015507 Z M 0.741237 0.741237 " transform="matrix(0.0052699, 0, 0, 0.0052699, 0, 9)"/>
<path fill-rule="nonzero" fill="rgb(60.784314%, 85.882353%, 30.196078%)" fill-opacity="1" stroke-width="1" stroke-linecap="round" stroke-linejoin="round" stroke="rgb(0%, 0%, 0%)" stroke-opacity="1" stroke-miterlimit="4" d="M 0.741237 0.741237 L 189.015507 0.741237 L 189.015507 189.015507 L 0.741237 189.015507 Z M 0.741237 0.741237 " transform="matrix(0.0052699, 0, 0, 0.0052699, 1, 9)"/>
<path fill-rule="nonzero" fill="rgb(60.784314%, 85.882353%, 30.196078%)" fill-opacity="1" stroke-width="1" stroke-linecap="round" stroke-linejoin="round" stroke="rgb(0%, 0%, 0%)" stroke-opacity="1" stroke-miterlimit="4" d="M 0.741237 0.741237 L 189.015507 0.741237 L 189.015507 189.015507 L 0.741237 189.015507 Z M 0.741237 0.741237 " transform="matrix(0.0052699, 0, 0, 0.0052699, 2, 9)"/>
<path fill-rule="nonzero" fill="rgb(60.784314%, 85.882353%, 30.196078%)" fill-opacity="1" stroke-width="1" stroke-linecap="round" stroke-linejoin="round" stroke="rgb(0%, 0%, 0%)" stroke-opacity="1" stroke-miterlimit="4" d="M 0.741237 0.741237 L 189.015507 0.741237 L 189.015507 189.015507 L 0.741237 189.015507 Z M 0.741237 0.741237 " transform="matrix(0.0052699, 0, 0, 0.0052699, 3, 9)"/>
<path fill-rule="nonzero" fill="rgb(60.784314%, 85.882353%, 30.196078%)" fill-opacity="1" stroke-width="1" stroke-linecap="round" stroke-linejoin="round" stroke="rgb(0%, 0%, 0%)" stroke-opacity="1" stroke-miterlimit="4" d="M 0.741237 0.741237 L 189.015507 0.741237 L 189.015507 189.015507 L 0.741237 189.015507 Z M 0.741237 0.741237 " transform="matrix(0.0052699, 0, 0, 0.0052699, 4, 9)"/>
<path fill-rule="nonzero" fill="rgb(60.784314%, 85.882353%, 30.196078%)" fill-opacity="1" stroke-width="1" stroke-linecap="round" stroke-linejoin="round" stroke="rgb(0%, 0%, 0%)" stroke-opacity="1" stroke-miterlimit="4" d="M 0.741237 0.741237 L 189.015507 0.741237 L 189.015507 189.015507 L 0.741237 189.015507 Z M 0.741237 0.741237 " transform="matrix(0.0052699, 0, 0, 0.0052699, 5, 9)"/>
<path fill-rule="nonzero" fill="rgb(60.784314%, 85.882353%, 30.196078%)" fill-opacity="1" stroke-width="1" stroke-linecap="round" stroke-linejoin="round" stroke="rgb(0%, 0%, 0%)" stroke-opacity="1" stroke-miterlimit="4" d="M 0.741237 0.741237 L 189.015507 0.741237 L 189.015507 189.015507 L 0.741237 189.015507 Z M 0.741237 0.741237 " transform="matrix(0.0052699, 0, 0, 0.0052699, 6, 9)"/>
<path fill-rule="nonzero" fill="rgb(60.784314%, 85.882353%, 30.196078%)" fill-opacity="1" stroke-width="1" stroke-linecap="round" stroke-linejoin="round" stroke="rgb(0%, 0%, 0%)" stroke-opacity="1" stroke-miterlimit="4" d="M 0.741237 0.741237 L 189.015507 0.741237 L 189.015507 189.015507 L 0.741237 189.015507 Z M 0.741237 0.741237 " transform="matrix(0.0052699, 0, 0, 0.0052699, 7, 9)"/>
<path fill-rule="nonzero" fill="rgb(60.784314%, 85.882353%, 30.196078%)" fill-opacity="1" stroke-width="1" stroke-linecap="round" stroke-linejoin="round" stroke="rgb(0%, 0%, 0%)" stroke-opacity="1" stroke-miterlimit="4" d="M 0.741237 0.741237 L 189.015507 0.741237 L 189.015507 189.015507 L 0.741237 189.015507 Z M 0.741237 0.741237 " transform="matrix(0.0052699, 0, 0, 0.0052699, 8, 9)"/>
<path fill-rule="nonzero" fill="rgb(60.784314%, 85.882353%, 30.196078%)" fill-opacity="1" stroke-width="1" stroke-linecap="round" stroke-linejoin="round" stroke="rgb(0%, 0%, 0%)" stroke-opacity="1" stroke-miterlimit="4" d="M 0.741237 0.741237 L 189.015507 0.741237 L 189.015507 189.015507 L 0.741237 189.015507 Z M 0.741237 0.741237 " transform="matrix(0.0052699, 0, 0, 0.0052699, 9, 9)"/>
</g>
</defs>
<use xlink:href="#source-143" transform="matrix(100, 0, 0, 100, 0, 0)"/>
</svg>
